<?xml version="1.0" encoding="utf-8"?>
<!-- Generator: Adobe Illustrator 16.0.3, SVG Export Plug-In . SVG Version: 6.00 Build 0)  -->
<!DOCTYPE svg PUBLIC "-//W3C//DTD SVG 1.1//EN" "http://www.w3.org/Graphics/SVG/1.1/DTD/svg11.dtd">
<svg version="1.1" id="Layer_1" xmlns="http://www.w3.org/2000/svg" xmlns:xlink="http://www.w3.org/1999/xlink" x="0px" y="0px"
	 width="128px" height="128px" viewBox="0.5 122.5 128 128" enable-background="new 0.5 122.5 128 128" xml:space="preserve">
<path d="M107.676,139.263l-0.15-0.226l-0.054,0.036C96.113,128.775,81.041,122.5,64.5,122.5c-35.35,0-64,28.656-64,64
	s28.65,64,64,64s64-28.656,64-64C128.5,167.794,120.472,150.965,107.676,139.263z M39.412,186.5H61.3v23.188l-16.768,4.13
	L39.412,186.5z M88.525,179.8H67.7v-16.402l16.798-4.197L88.525,179.8z M44.351,159.717l16.949,3.744V179.8H40.169L44.351,159.717z
	 M61.3,156.957l-13.051-2.756L61.3,141.15V156.957z M67.7,156.804V141.15l12.522,12.522L67.7,156.804z M61.3,132.101l-20.523,20.523
	l-0.558-0.118l-13.327-9.579c9.345-8.076,21.294-13.211,34.408-13.933V132.101z M37.031,158.1l1.07,0.236L33.57,180.1H31.7H7.264
	c1.392-12.53,6.815-23.856,14.945-32.653L37.031,158.1z M61.3,232.278l-12.591-12.895l12.591-3.099V232.278z M67.7,216.102
	l12.502,3.125L67.7,231.44V216.102z M40.313,221.45l1.185-0.292L61.3,241.437v2.569c-12.655-0.696-24.235-5.49-33.428-13.083
	L40.313,221.45z M67.7,240.387l19.791-19.338l1.608,0.401l12.352,9.192c-9.244,7.75-20.944,12.659-33.751,13.363V240.387z
	 M84.315,213.832L67.7,209.524V186.5h20.6L84.315,213.832z M95.7,180.1h-0.594l-4.392-22.453l0.16-0.04l15.755-10.329
	c8.218,8.82,13.705,20.211,15.105,32.822H95.7z M88.787,151.531l-1.325,0.331L67.7,132.101v-3.106
	c13.029,0.717,24.91,5.79,34.227,13.775L88.787,151.531z M6.9,186.5h26l5.409,28.852l-0.172,0.042l-14.991,11.144
	C13.101,216.165,6.9,202.047,6.9,186.5z M106.189,226.185l-13.777-10.253l-1.867-0.484l4.222-28.947H122.1
	C122.1,201.872,116.036,215.846,106.189,226.185z"/>
</svg>
