<?xml version="1.0" encoding="utf-8"?>
<!-- Generator: Adobe Illustrator 16.0.3, SVG Export Plug-In . SVG Version: 6.00 Build 0)  -->
<!DOCTYPE svg PUBLIC "-//W3C//DTD SVG 1.1//EN" "http://www.w3.org/Graphics/SVG/1.1/DTD/svg11.dtd">
<svg version="1.1" id="Layer_1" xmlns="http://www.w3.org/2000/svg" xmlns:xlink="http://www.w3.org/1999/xlink" x="0px" y="0px"
	 width="128px" height="109px" viewBox="0.5 122.5 128 109" enable-background="new 0.5 122.5 128 109" xml:space="preserve">
<path fill="#BEC3C7" d="M128.5,166.439l-29.293,17.575v-17.575H88.916c6.469-4.272,10.741-11.636,10.741-20.018
	c0-13.223-10.599-23.922-23.707-23.922c-13.103,0-23.736,10.699-23.736,23.922c0,8.382,4.287,15.745,10.763,20.018H37.202
	c6.469-4.272,10.742-11.636,10.742-20.018c0-13.223-10.599-23.922-23.708-23.922C11.135,122.5,0.5,133.199,0.5,146.422
	c0,8.382,4.289,15.745,10.764,20.018h-7.26v64.994h95.203v-23.982l29.293,17.574V166.439z M75.95,129.823
	c9.032,0,16.384,7.445,16.384,16.599c0,9.154-7.352,16.6-16.384,16.6c-9.055,0-16.413-7.445-16.413-16.6
	C59.537,137.269,66.896,129.823,75.95,129.823z M24.236,129.823c9.032,0,16.385,7.445,16.385,16.599c0,9.154-7.353,16.6-16.385,16.6
	c-9.047,0-16.413-7.445-16.413-16.6C7.823,137.269,15.189,129.823,24.236,129.823z M84.561,216.787H18.65v-35.701h65.91V216.787z
	 M121.177,212.089l-21.97-13.181v-6.351l21.97-13.181V212.089z"/>
</svg>
