<?xml version="1.0" encoding="utf-8"?>
<!-- Generator: Adobe Illustrator 16.0.3, SVG Export Plug-In . SVG Version: 6.00 Build 0)  -->
<!DOCTYPE svg PUBLIC "-//W3C//DTD SVG 1.1//EN" "http://www.w3.org/Graphics/SVG/1.1/DTD/svg11.dtd">
<svg version="1.1" id="Layer_1" xmlns="http://www.w3.org/2000/svg" xmlns:xlink="http://www.w3.org/1999/xlink" x="0px" y="0px"
	 width="128px" height="104px" viewBox="0.5 122.5 128 104" enable-background="new 0.5 122.5 128 104" xml:space="preserve">
<path fill="#48647C" d="M12.69,134.69v79.238H116.31V134.69H12.69z M104.119,201.738H24.881v-54.857h79.238V201.738z"/>
<polygon fill="#48647C" points="104.119,122.5 104.119,128.596 122.404,128.596 122.404,146.881 128.5,146.881 128.5,122.5 "/>
<polygon fill="#48647C" points="6.596,128.596 24.881,128.596 24.881,122.5 0.5,122.5 0.5,146.881 6.596,146.881 "/>
<polygon fill="#48647C" points="6.596,201.738 0.5,201.738 0.5,226.119 24.881,226.119 24.881,220.023 6.596,220.023 "/>
<polygon fill="#48647C" points="122.404,220.023 104.119,220.023 104.119,226.119 128.5,226.119 128.5,201.738 122.404,201.738 "/>
</svg>
