<?xml version="1.0" encoding="utf-8"?>
<!-- Generator: Adobe Illustrator 16.0.3, SVG Export Plug-In . SVG Version: 6.00 Build 0)  -->
<!DOCTYPE svg PUBLIC "-//W3C//DTD SVG 1.1//EN" "http://www.w3.org/Graphics/SVG/1.1/DTD/svg11.dtd">
<svg version="1.1" id="Layer_1" xmlns="http://www.w3.org/2000/svg" xmlns:xlink="http://www.w3.org/1999/xlink" x="0px" y="0px"
	 width="128px" height="135px" viewBox="0.5 122.5 128 135" enable-background="new 0.5 122.5 128 135" xml:space="preserve">
<g>
	<path d="M47.658,135.974v76.658c-4.94-5.645-12.112-9.29-20.21-9.29c-14.888,0-26.947,12.066-26.947,26.947
		c0,14.869,12.059,26.948,26.947,26.948s26.947-12.079,26.947-26.948v-80.842l67.507-11.789l-0.139,54.763
		c-4.94-5.645-12.111-9.289-20.21-9.289c-14.889,0-26.947,12.065-26.947,26.947c0,14.868,12.059,26.947,26.947,26.947
		c14.888,0,26.947-12.079,26.947-26.947V122.5L47.658,135.974z M27.447,249.539c-10.618,0-19.25-8.631-19.25-19.25
		c0-10.618,8.632-19.25,19.25-19.25c10.619,0,19.25,8.632,19.25,19.25C46.697,240.908,38.066,249.539,27.447,249.539z
		 M101.553,229.329c-10.618,0-19.25-8.632-19.25-19.25s8.632-19.25,19.25-19.25s19.25,8.632,19.25,19.25
		S112.171,229.329,101.553,229.329z"/>
</g>
</svg>
