<?xml version="1.0" encoding="utf-8"?>
<!-- Generator: Adobe Illustrator 16.0.3, SVG Export Plug-In . SVG Version: 6.00 Build 0)  -->
<!DOCTYPE svg PUBLIC "-//W3C//DTD SVG 1.1//EN" "http://www.w3.org/Graphics/SVG/1.1/DTD/svg11.dtd">
<svg version="1.1" id="Layer_1" xmlns="http://www.w3.org/2000/svg" xmlns:xlink="http://www.w3.org/1999/xlink" x="0px" y="0px"
	 width="63.781px" height="64px" viewBox="0 0 63.781 64" enable-background="new 0 0 63.781 64" xml:space="preserve">
<g>
	<path fill="#2E3E51" d="M34.815,0C18.819,0,5.85,13.026,5.85,29.086c0,5.658,1.617,10.935,4.403,15.402L0,54.562L9.432,64
		L19.59,53.816c4.424,2.75,9.639,4.342,15.225,4.342c16,0,28.966-13.019,28.966-29.072C63.781,13.026,50.815,0,34.815,0z
		 M9.432,59.159l-4.574-4.574l7.4-7.272c1.333,1.659,2.842,3.166,4.501,4.495L9.432,59.159z M34.815,51.316
		c-12.197,0-22.123-9.973-22.123-22.23c0-12.265,9.926-22.244,22.123-22.244c12.198,0,22.124,9.979,22.124,22.244
		C56.939,41.344,47.014,51.316,34.815,51.316z"/>
	<path fill="#2E3E51" d="M35.758,11.14L35.4,14.543c0.397,0.045,9.766,1.236,12.184,13.364l3.354-0.668
		C48.012,12.565,35.881,11.154,35.758,11.14z"/>
</g>
</svg>
