<?xml version="1.0" encoding="utf-8"?>
<!-- Generator: Adobe Illustrator 16.0.3, SVG Export Plug-In . SVG Version: 6.00 Build 0)  -->
<!DOCTYPE svg PUBLIC "-//W3C//DTD SVG 1.1//EN" "http://www.w3.org/Graphics/SVG/1.1/DTD/svg11.dtd">
<svg version="1.1" id="Layer_1" xmlns="http://www.w3.org/2000/svg" xmlns:xlink="http://www.w3.org/1999/xlink" x="0px" y="0px"
	 width="128px" height="127px" viewBox="0.5 122.5 128 127" enable-background="new 0.5 122.5 128 127" xml:space="preserve">
<g>
	<g>
		<g>
			<g>
				<path fill="#BEC3C7" d="M42.892,164.703"/>
			</g>
		</g>
	</g>
	<g>
		<g>
			<g>
				<path fill="#BEC3C7" d="M0.5,249.355l19.71-40.097c-5.227-8.242-7.404-16.843-7.404-28.642c0-32.049,25.958-58.117,57.857-58.117
					c31.893,0,57.837,26.068,57.837,58.117s-25.944,58.123-57.837,58.123c-10.922,0-21.427-3.022-30.6-8.782
					c-4.647,2.223-13.756,6.676-22.012,10.752L0.5,249.355z M40.683,215.695h2.157l1.748,1.268
					c7.639,5.532,16.656,8.464,26.075,8.464c24.553,0,44.523-20.101,44.523-44.81c0-24.703-19.971-44.804-44.523-44.804
					c-24.561,0-44.544,20.101-44.544,44.804c0,10.576,1.931,17.116,7.132,24.124l2.412,3.257l-5.968,12.149
					C38.854,215.695,39.277,215.695,40.683,215.695z"/>
			</g>
		</g>
	</g>
	<g>
		<g>
			<g>
				<g>
					<path fill="#BEC3C7" d="M56.972,180.084c0,3.653-2.996,6.604-6.656,6.604c-3.68,0-6.663-2.951-6.663-6.604c0-3.641,2.983-6.618,6.663-6.618
						C53.976,173.466,56.972,176.443,56.972,180.084z"/>
				</g>
			</g>
		</g>
		<g>
			<g>
				<g>
					<path fill="#BEC3C7" d="M78.906,180.084c0,3.653-2.991,6.604-6.664,6.604s-6.644-2.951-6.644-6.604c0-3.641,2.971-6.618,6.644-6.618
						S78.906,176.443,78.906,180.084z"/>
				</g>
			</g>
		</g>
		<g>
			<g>
				<g>
					<path fill="#BEC3C7" d="M100.099,179.979c0,3.641-2.978,6.605-6.657,6.605c-3.665,0-6.657-2.965-6.657-6.605s2.992-6.604,6.657-6.604
						C97.121,173.375,100.099,176.339,100.099,179.979z"/>
				</g>
			</g>
		</g>
	</g>
</g>
</svg>
