<?xml version="1.0" encoding="utf-8"?>
<!-- Generator: Adobe Illustrator 16.0.3, SVG Export Plug-In . SVG Version: 6.00 Build 0)  -->
<!DOCTYPE svg PUBLIC "-//W3C//DTD SVG 1.1//EN" "http://www.w3.org/Graphics/SVG/1.1/DTD/svg11.dtd">
<svg version="1.1" id="Layer_1" xmlns="http://www.w3.org/2000/svg" xmlns:xlink="http://www.w3.org/1999/xlink" x="0px" y="0px"
	 width="36px" height="39px" viewBox="0 0 36 39" enable-background="new 0 0 36 39" xml:space="preserve">
<g>
	<path fill="#2E3E51" d="M36,33l-4-6c0-3.029,0.211-7.586,0.211-9.158c0-7.752-4.686-13.139-11.219-14.52
		C21,3.227,21.018,3.137,21.018,3.037C21.018,1.58,20.461,0,19,0h-1c-1.457,0-2.27,1.58-2.27,3.037c0,0.1,0.02,0.189,0.027,0.285
		C9.225,4.703,4,12.248,4,20c0,1.258,0,3.813,0,7l-4,6h4.273h9.546c-0.049,0.285-0.081,0.575-0.081,0.873
		c0,2.826,2.301,5.127,5.131,5.127S24,36.699,24,33.873c0-0.299-0.04-0.588-0.09-0.873h8.564H36z M22,33.873
		C22,35.598,20.596,37,18.869,37s-3.131-1.402-3.131-3.127c0-0.305,0.053-0.595,0.133-0.873h5.995
		C21.947,33.278,22,33.568,22,33.873z M28,28v1H8v-9c0-5.768,3.816-11.756,8.586-12.764l1.887-0.185l1.691,0.185
		C25.129,8.285,28,12.506,28,18V28z"/>
	<polygon fill="#2E3E51" points="17.42,10.42 14.063,13.664 14,13.68 14,16 16,16 16,14.483 18.756,11.834 	"/>
</g>
</svg>
