<?xml version="1.0" encoding="utf-8"?>
<!-- Generator: Adobe Illustrator 16.0.3, SVG Export Plug-In . SVG Version: 6.00 Build 0)  -->
<!DOCTYPE svg PUBLIC "-//W3C//DTD SVG 1.1//EN" "http://www.w3.org/Graphics/SVG/1.1/DTD/svg11.dtd">
<svg version="1.1" id="Layer_1" xmlns="http://www.w3.org/2000/svg" xmlns:xlink="http://www.w3.org/1999/xlink" x="0px" y="0px"
	 width="128px" height="86px" viewBox="0.5 122.5 128 86" enable-background="new 0.5 122.5 128 86" xml:space="preserve">
<g>
	<path d="M64.648,134.69c0.94,0,1.857,0.006,2.238,0.018c32.596,1.06,45.125,22.78,48.715,31.019
		c-3.161,7.994-14.667,29-48.488,29.94h-5.227c-35.41-1.048-45.94-22.036-48.654-29.929c3.054-7.798,14.744-30.102,48.815-31.03
		C62.458,134.696,63.565,134.69,64.648,134.69 M64.648,122.5c-1.226,0-2.481,0.012-2.935,0.023
		C10.875,123.904,0.5,165.446,0.5,165.446s8.214,40.935,61.214,42.411h5.565c51.632-1.346,61.221-42.411,61.221-42.411
		s-11.875-41.321-61.221-42.923C66.821,122.512,65.75,122.5,64.648,122.5L64.648,122.5z"/>
	<path d="M65.262,147.773c9.607,0,17.417,7.81,17.417,17.417s-7.81,17.417-17.417,17.417s-17.416-7.81-17.416-17.417
		S55.654,147.773,65.262,147.773 M65.262,140.81c-13.47,0-24.381,10.917-24.381,24.381c0,13.452,10.911,24.381,24.381,24.381
		c13.471,0,24.381-10.929,24.381-24.381C89.643,151.727,78.732,140.81,65.262,140.81L65.262,140.81z"/>
</g>
</svg>
